<svg xmlns="http://www.w3.org/2000/svg" xmlns:xlink="http://www.w3.org/1999/xlink" width="2000" zoomAndPan="magnify" viewBox="0 0 1500 1499.999933" height="2000" preserveAspectRatio="xMidYMid meet" version="1.0"><defs><g/><clipPath id="ab51233548"><path d="M 34.054688 28.386719 L 1372 28.386719 L 1372 1263 L 34.054688 1263 Z M 34.054688 28.386719 " clip-rule="nonzero"/></clipPath><clipPath id="53e66b81af"><path d="M 1083.597656 93.886719 L 1354.671875 580.074219 C 1377.375 620.792969 1377.375 670.363281 1354.671875 711.082031 L 1083.597656 1197.269531 C 1061.050781 1237.707031 1018.382812 1262.773438 972.082031 1262.773438 L 433.84375 1262.773438 C 387.542969 1262.773438 344.871094 1237.707031 322.324219 1197.269531 L 51.253906 711.082031 C 28.550781 670.363281 28.550781 620.792969 51.253906 580.074219 L 322.324219 93.886719 C 344.871094 53.449219 387.542969 28.386719 433.84375 28.386719 L 972.082031 28.386719 C 1018.382812 28.386719 1061.050781 53.449219 1083.597656 93.886719 Z M 1083.597656 93.886719 " clip-rule="nonzero"/></clipPath><clipPath id="3b802011fa"><path d="M 0.0546875 0.386719 L 1338 0.386719 L 1338 1234.839844 L 0.0546875 1234.839844 Z M 0.0546875 0.386719 " clip-rule="nonzero"/></clipPath><clipPath id="43d52eeacd"><path d="M 1049.597656 65.886719 L 1320.671875 552.074219 C 1343.375 592.792969 1343.375 642.363281 1320.671875 683.082031 L 1049.597656 1169.269531 C 1027.050781 1209.707031 984.382812 1234.773438 938.082031 1234.773438 L 399.84375 1234.773438 C 353.542969 1234.773438 310.871094 1209.707031 288.324219 1169.269531 L 17.253906 683.082031 C -5.449219 642.363281 -5.449219 592.792969 17.253906 552.074219 L 288.324219 65.886719 C 310.871094 25.449219 353.542969 0.386719 399.84375 0.386719 L 938.082031 0.386719 C 984.382812 0.386719 1027.050781 25.449219 1049.597656 65.886719 Z M 1049.597656 65.886719 " clip-rule="nonzero"/></clipPath><clipPath id="eeec31ddd5"><rect x="0" width="1338" y="0" height="1235"/></clipPath><clipPath id="1a69a436f1"><path d="M 34 28.386719 L 1371.75 28.386719 L 1371.75 1263 L 34 1263 Z M 34 28.386719 " clip-rule="nonzero"/></clipPath><clipPath id="abd151f586"><path d="M 1083.632812 93.886719 L 1354.707031 580.074219 C 1377.410156 620.789062 1377.410156 670.359375 1354.707031 711.078125 L 1083.632812 1197.261719 C 1061.085938 1237.703125 1018.417969 1262.765625 972.117188 1262.765625 L 433.882812 1262.765625 C 387.582031 1262.765625 344.910156 1237.703125 322.363281 1197.261719 L 51.292969 711.078125 C 28.589844 670.359375 28.589844 620.789062 51.292969 580.074219 L 322.363281 93.886719 C 344.910156 53.449219 387.582031 28.386719 433.882812 28.386719 L 972.117188 28.386719 C 1018.417969 28.386719 1061.085938 53.449219 1083.632812 93.886719 Z M 1083.632812 93.886719 " clip-rule="nonzero"/></clipPath><clipPath id="45da6662b9"><rect x="0" width="538" y="0" height="90"/></clipPath><clipPath id="36f3d9bda7"><path d="M 309 188 L 810 188 L 810 885.433594 L 309 885.433594 Z M 309 188 " clip-rule="nonzero"/></clipPath><clipPath id="79faca916e"><path d="M 556 233 L 1096 233 L 1096 885.433594 L 556 885.433594 Z M 556 233 " clip-rule="nonzero"/></clipPath><clipPath id="579eec2dba"><path d="M 494.171875 409 L 911.753906 409 L 911.753906 857 L 494.171875 857 Z M 494.171875 409 " clip-rule="nonzero"/></clipPath><clipPath id="c1f4634c88"><rect x="0" width="1407" y="0" height="1295"/></clipPath></defs><g transform="matrix(1, 0, 0, 1, 47, 85)"><g clip-path="url(#c1f4634c88)"><g clip-path="url(#ab51233548)"><g clip-path="url(#53e66b81af)"><g transform="matrix(1, 0, 0, 1, 34, 28)"><g clip-path="url(#eeec31ddd5)"><g clip-path="url(#3b802011fa)"><g clip-path="url(#43d52eeacd)"><path fill="#ffffff" d="M -19.269531 0.386719 L 1357.433594 0.386719 L 1357.433594 1237 L -19.269531 1237 Z M -19.269531 0.386719 " fill-opacity="1" fill-rule="nonzero"/></g></g></g></g></g></g><g clip-path="url(#1a69a436f1)"><g clip-path="url(#abd151f586)"><path stroke-linecap="butt" transform="matrix(0.427851, 0, 0, 0.427851, 14.731664, 28.384963)" fill="none" stroke-linejoin="miter" d="M 2498.304223 153.094899 L 3131.876249 1289.443462 C 3184.939446 1384.604803 3184.939446 1500.463712 3131.876249 1595.634182 L 2498.304223 2731.973616 C 2445.606223 2826.49586 2345.879914 2885.073541 2237.662763 2885.073541 L 979.66691 2885.073541 C 871.449758 2885.073541 771.714319 2826.49586 719.016319 2731.973616 L 85.453424 1595.634182 C 32.390226 1500.463712 32.390226 1384.604803 85.453424 1289.443462 L 719.016319 153.094899 C 771.714319 58.581784 871.449758 0.00410413 979.66691 0.00410413 L 2237.662763 0.00410413 C 2345.879914 0.00410413 2445.606223 58.581784 2498.304223 153.094899 Z M 2498.304223 153.094899 " stroke="#000000" stroke-width="31.553064" stroke-opacity="1" stroke-miterlimit="4"/></g></g><path stroke-linecap="butt" transform="matrix(0.427851, 0, 0, 0.427851, 306.458069, 921.269853)" fill="none" stroke-linejoin="miter" d="M -0.00242434 1.00354 L 1853.648823 1.00354 " stroke="#000b26" stroke-width="2" stroke-opacity="1" stroke-miterlimit="4"/><path stroke-linecap="butt" transform="matrix(0.427851, 0, 0, 0.427851, 306.458069, 1128.0337)" fill="none" stroke-linejoin="miter" d="M -0.00242434 0.998568 L 1853.648823 0.998568 " stroke="#000b26" stroke-width="2" stroke-opacity="1" stroke-miterlimit="4"/><g transform="matrix(1, 0, 0, 1, 434, 978)"><g clip-path="url(#45da6662b9)"><g fill="#000000" fill-opacity="1"><g transform="translate(0.606123, 73.212665)"><g><path d="M 34.03125 -59.875 L 35.328125 -57.453125 L 65.03125 -1.8125 L 65.9375 0 L 60.328125 0 L 59.953125 -0.765625 L 49.109375 -21.671875 L 18.5625 -21.671875 L 7.953125 -0.765625 L 7.578125 0 L 2.28125 0 L 3.1875 -1.8125 L 32.8125 -57.453125 Z M 46.765625 -25.171875 L 33.8125 -49.953125 L 21 -25.171875 Z M 46.765625 -25.171875 "/></g></g></g><g fill="#000000" fill-opacity="1"><g transform="translate(63.128055, 73.212665)"><g><path d="M 39.640625 -4.015625 C 36.054688 -0.628906 31.429688 1.0625 25.765625 1.0625 L 24.859375 1.0625 C 19.148438 1.0625 14.503906 -0.601562 10.921875 -3.9375 C 7.429688 -7.269531 5.6875 -11.46875 5.6875 -16.53125 L 5.6875 -56.84375 L 10.84375 -56.84375 L 10.84375 -16.75 C 10.84375 -13.007812 12.101562 -9.898438 14.625 -7.421875 C 17.507812 -5.003906 21.070312 -3.796875 25.3125 -3.796875 C 29.5625 -3.796875 33.125 -5.003906 36 -7.421875 C 38.476562 -9.847656 39.71875 -12.957031 39.71875 -16.75 L 39.71875 -56.84375 L 44.875 -56.84375 L 44.875 -16.671875 C 44.875 -14.148438 44.441406 -11.828125 43.578125 -9.703125 C 42.722656 -7.578125 41.410156 -5.679688 39.640625 -4.015625 Z M 39.640625 -4.015625 "/></g></g></g><g fill="#000000" fill-opacity="1"><g transform="translate(113.676294, 73.212665)"><g><path d="M 35.390625 -56.84375 L 35.390625 -52 L 21.671875 -52 L 21.671875 0 L 15.46875 0 L 15.46875 -52 L 1.515625 -52 L 1.515625 -56.84375 Z M 35.390625 -56.84375 "/></g></g></g><g fill="#000000" fill-opacity="1"><g transform="translate(144.520205, 73.212665)"><g><path d="M 35.015625 0.984375 C 26.273438 0.984375 18.722656 -1.972656 12.359375 -7.890625 C 6.390625 -13.796875 3.40625 -20.703125 3.40625 -28.609375 C 3.40625 -36.515625 6.4375 -43.375 12.5 -49.1875 C 18.96875 -54.945312 26.710938 -57.828125 35.734375 -57.828125 C 44.753906 -57.828125 52.445312 -54.945312 58.8125 -49.1875 C 64.832031 -43.425781 67.84375 -36.566406 67.84375 -28.609375 C 67.84375 -20.648438 64.859375 -13.742188 58.890625 -7.890625 C 52.578125 -1.972656 45 0.984375 36.15625 0.984375 Z M 54.875 -11.140625 C 60.082031 -15.941406 62.6875 -21.710938 62.6875 -28.453125 C 62.6875 -35.203125 60.109375 -40.976562 54.953125 -45.78125 C 49.597656 -50.582031 43.164062 -52.984375 35.65625 -52.984375 C 28.15625 -52.984375 21.726562 -50.582031 16.375 -45.78125 C 11.164062 -40.976562 8.5625 -35.203125 8.5625 -28.453125 C 8.5625 -21.710938 11.164062 -15.941406 16.375 -11.140625 C 21.726562 -6.285156 28.144531 -3.859375 35.625 -3.859375 C 43.101562 -3.859375 49.519531 -6.285156 54.875 -11.140625 Z M 54.875 -11.140625 "/></g></g></g><g fill="#000000" fill-opacity="1"><g transform="translate(215.757608, 73.212665)"><g><path d="M 5.6875 -56.84375 L 11.515625 -56.84375 L 37.515625 -6.0625 L 63.59375 -56.84375 L 69.28125 -56.84375 L 69.28125 0 L 64.125 0 L 64.125 -49.5 L 37.296875 2.734375 L 10.609375 -49.421875 L 10.609375 0 L 5.6875 0 Z M 5.6875 -56.84375 "/></g></g></g><g fill="#000000" fill-opacity="1"><g transform="translate(290.708431, 73.212665)"><g><path d="M 34.03125 -59.875 L 35.328125 -57.453125 L 65.03125 -1.8125 L 65.9375 0 L 60.328125 0 L 59.953125 -0.765625 L 49.109375 -21.671875 L 18.5625 -21.671875 L 7.953125 -0.765625 L 7.578125 0 L 2.28125 0 L 3.1875 -1.8125 L 32.8125 -57.453125 Z M 46.765625 -25.171875 L 33.8125 -49.953125 L 21 -25.171875 Z M 46.765625 -25.171875 "/></g></g></g><g fill="#000000" fill-opacity="1"><g transform="translate(351.259862, 73.212665)"><g><path d="M 35.390625 -56.84375 L 35.390625 -52 L 21.671875 -52 L 21.671875 0 L 15.46875 0 L 15.46875 -52 L 1.515625 -52 L 1.515625 -56.84375 Z M 35.390625 -56.84375 "/></g></g></g><g fill="#000000" fill-opacity="1"><g transform="translate(388.166896, 73.212665)"><g><path d="M 6.0625 -56.84375 L 11.21875 -56.84375 L 11.21875 0 L 6.0625 0 Z M 6.0625 -56.84375 "/></g></g></g><g fill="#000000" fill-opacity="1"><g transform="translate(405.445751, 73.212665)"><g><path d="M 35.015625 0.984375 C 26.273438 0.984375 18.722656 -1.972656 12.359375 -7.890625 C 6.390625 -13.796875 3.40625 -20.703125 3.40625 -28.609375 C 3.40625 -36.515625 6.4375 -43.375 12.5 -49.1875 C 18.96875 -54.945312 26.710938 -57.828125 35.734375 -57.828125 C 44.753906 -57.828125 52.445312 -54.945312 58.8125 -49.1875 C 64.832031 -43.425781 67.84375 -36.566406 67.84375 -28.609375 C 67.84375 -20.648438 64.859375 -13.742188 58.890625 -7.890625 C 52.578125 -1.972656 45 0.984375 36.15625 0.984375 Z M 54.875 -11.140625 C 60.082031 -15.941406 62.6875 -21.710938 62.6875 -28.453125 C 62.6875 -35.203125 60.109375 -40.976562 54.953125 -45.78125 C 49.597656 -50.582031 43.164062 -52.984375 35.65625 -52.984375 C 28.15625 -52.984375 21.726562 -50.582031 16.375 -45.78125 C 11.164062 -40.976562 8.5625 -35.203125 8.5625 -28.453125 C 8.5625 -21.710938 11.164062 -15.941406 16.375 -11.140625 C 21.726562 -6.285156 28.144531 -3.859375 35.625 -3.859375 C 43.101562 -3.859375 49.519531 -6.285156 54.875 -11.140625 Z M 54.875 -11.140625 "/></g></g></g><g fill="#000000" fill-opacity="1"><g transform="translate(476.683139, 73.212665)"><g><path d="M 50.171875 -56.84375 L 55.03125 -56.84375 L 55.03125 3.265625 L 52.671875 0.375 L 10.53125 -48.203125 L 10.53125 0 L 5.6875 0 L 5.6875 -60.109375 L 8.03125 -57.234375 L 50.171875 -8.71875 Z M 50.171875 -56.84375 "/></g></g></g></g></g><g clip-path="url(#36f3d9bda7)"><path fill="#000000" d="M 809.03125 312.75 L 739.132812 433.699219 L 702.441406 369.984375 L 690.425781 390.851562 L 474.5625 764.289062 L 422.21875 855.039062 C 416.839844 864.367188 409.089844 871.953125 400.078125 877.171875 C 391.0625 882.390625 380.625 885.234375 369.714844 885.234375 C 348.050781 885.234375 328.125 873.695312 317.210938 854.878906 C 306.457031 836.222656 306.457031 813.140625 317.210938 794.328125 L 649.78125 218.679688 C 660.535156 199.867188 680.621094 188.324219 702.285156 188.324219 C 723.949219 188.324219 743.875 199.867188 754.628906 218.679688 L 798.117188 294.09375 Z M 809.03125 312.75 " fill-opacity="1" fill-rule="nonzero"/></g><g clip-path="url(#79faca916e)"><path fill="#000000" d="M 1087.359375 794.644531 L 929.21875 520.8125 L 859.320312 641.757812 L 930.007812 764.289062 L 738.339844 764.289062 L 834.175781 598.28125 L 904.074219 477.335938 L 992.632812 324.132812 C 1003.703125 305.003906 1003.386719 281.289062 992 262.316406 C 967.960938 223.109375 910.714844 223.742188 887.785156 263.582031 L 834.175781 356.386719 L 764.277344 477.335938 L 598.386719 764.289062 L 561.382812 828.476562 C 557.269531 835.589844 555.847656 843.023438 556.320312 850.296875 C 556.320312 850.925781 556.480469 851.402344 556.480469 852.035156 C 556.480469 852.351562 556.480469 852.507812 556.480469 852.824219 C 556.480469 852.984375 556.480469 853.300781 556.636719 853.457031 C 556.796875 854.089844 556.953125 854.878906 557.113281 855.511719 C 557.269531 856.460938 557.585938 857.25 557.742188 858.199219 C 559.167969 862.941406 561.539062 867.210938 564.386719 871.007812 C 565.175781 871.953125 565.96875 872.902344 566.757812 873.695312 C 573.558594 880.808594 583.046875 885.234375 593.957031 885.234375 L 732.804688 885.234375 C 732.804688 885.234375 732.964844 885.234375 732.964844 885.234375 L 1034.539062 885.234375 C 1056.203125 885.234375 1076.128906 873.695312 1086.882812 854.878906 C 1098.113281 836.382812 1098.113281 813.300781 1087.359375 794.644531 Z M 1087.359375 794.644531 " fill-opacity="1" fill-rule="nonzero"/></g><path fill="#000000" d="M 1085.710938 141.609375 C 1086.167969 143.542969 1086.527344 145.496094 1086.792969 147.464844 C 1087.058594 149.4375 1087.226562 151.414062 1087.296875 153.402344 C 1087.367188 155.390625 1087.339844 157.375 1087.214844 159.359375 C 1087.089844 161.34375 1086.871094 163.320312 1086.550781 165.28125 C 1086.234375 167.242188 1085.820312 169.1875 1085.308594 171.109375 C 1084.800781 173.03125 1084.199219 174.921875 1083.503906 176.785156 C 1082.808594 178.648438 1082.023438 180.472656 1081.148438 182.257812 C 1080.273438 184.042969 1079.3125 185.78125 1078.265625 187.472656 C 1077.222656 189.164062 1076.097656 190.800781 1074.890625 192.382812 C 1073.683594 193.964844 1072.402344 195.480469 1071.046875 196.9375 C 1069.691406 198.390625 1068.269531 199.777344 1066.777344 201.09375 C 1065.285156 202.40625 1063.730469 203.644531 1062.117188 204.808594 C 1060.503906 205.972656 1058.839844 207.050781 1057.121094 208.050781 C 1055.398438 209.050781 1053.636719 209.964844 1051.824219 210.789062 C 1050.015625 211.613281 1048.171875 212.347656 1046.289062 212.992188 C 1044.410156 213.636719 1042.5 214.1875 1040.5625 214.644531 C 1038.628906 215.101562 1036.675781 215.464844 1034.703125 215.730469 C 1032.734375 215.992188 1030.753906 216.160156 1028.765625 216.234375 C 1026.777344 216.304688 1024.792969 216.277344 1022.808594 216.152344 C 1020.820312 216.027344 1018.847656 215.804688 1016.886719 215.488281 C 1014.921875 215.167969 1012.980469 214.753906 1011.054688 214.246094 C 1009.132812 213.738281 1007.242188 213.132812 1005.378906 212.441406 C 1003.515625 211.746094 1001.6875 210.960938 999.902344 210.085938 C 998.117188 209.210938 996.378906 208.25 994.6875 207.207031 C 992.992188 206.160156 991.359375 205.035156 989.777344 203.828125 C 988.195312 202.621094 986.675781 201.34375 985.222656 199.988281 C 983.765625 198.632812 982.378906 197.207031 981.066406 195.71875 C 979.75 194.226562 978.511719 192.675781 977.347656 191.0625 C 976.183594 189.449219 975.101562 187.78125 974.105469 186.0625 C 973.105469 184.34375 972.191406 182.578125 971.367188 180.769531 C 970.539062 178.960938 969.804688 177.117188 969.160156 175.234375 C 968.515625 173.355469 967.964844 171.445312 967.507812 169.511719 C 967.050781 167.578125 966.691406 165.625 966.425781 163.652344 C 966.160156 161.683594 965.992188 159.703125 965.921875 157.71875 C 965.851562 155.730469 965.875 153.742188 966 151.757812 C 966.125 149.773438 966.347656 147.800781 966.664062 145.839844 C 966.984375 143.875 967.398438 141.933594 967.90625 140.011719 C 968.417969 138.089844 969.019531 136.195312 969.714844 134.335938 C 970.410156 132.472656 971.195312 130.648438 972.070312 128.863281 C 972.945312 127.074219 973.90625 125.335938 974.949219 123.644531 C 975.996094 121.953125 977.121094 120.316406 978.328125 118.738281 C 979.535156 117.15625 980.816406 115.636719 982.171875 114.183594 C 983.527344 112.726562 984.949219 111.34375 986.441406 110.027344 C 987.933594 108.710938 989.484375 107.472656 991.097656 106.3125 C 992.710938 105.148438 994.378906 104.066406 996.097656 103.070312 C 997.816406 102.070312 999.582031 101.15625 1001.390625 100.332031 C 1003.199219 99.503906 1005.046875 98.769531 1006.925781 98.125 C 1008.808594 97.480469 1010.71875 96.929688 1012.652344 96.472656 C 1014.589844 96.015625 1016.542969 95.65625 1018.511719 95.390625 C 1020.484375 95.125 1022.464844 94.957031 1024.449219 94.886719 C 1026.4375 94.816406 1028.425781 94.84375 1030.410156 94.96875 C 1032.394531 95.09375 1034.367188 95.3125 1036.332031 95.632812 C 1038.296875 95.949219 1040.238281 96.363281 1042.160156 96.875 C 1044.082031 97.382812 1045.976562 97.984375 1047.839844 98.679688 C 1049.703125 99.375 1051.527344 100.160156 1053.3125 101.035156 C 1055.101562 101.910156 1056.839844 102.867188 1058.53125 103.914062 C 1060.222656 104.960938 1061.859375 106.085938 1063.441406 107.292969 C 1065.023438 108.496094 1066.539062 109.777344 1067.996094 111.132812 C 1069.449219 112.488281 1070.835938 113.910156 1072.152344 115.402344 C 1073.46875 116.894531 1074.707031 118.445312 1075.871094 120.058594 C 1077.03125 121.671875 1078.113281 123.335938 1079.113281 125.058594 C 1080.113281 126.777344 1081.023438 128.539062 1081.851562 130.347656 C 1082.675781 132.15625 1083.414062 134.003906 1084.058594 135.882812 C 1084.703125 137.765625 1085.253906 139.671875 1085.710938 141.609375 Z M 1085.710938 141.609375 " fill-opacity="1" fill-rule="nonzero"/><g clip-path="url(#579eec2dba)"><path fill="#ffffff" d="M 910.496094 689.78125 C 901.511719 676.613281 839.597656 538.921875 838.691406 530.769531 C 858.3125 527.804688 870.820312 511.667969 870.894531 494.921875 C 870.953125 481.597656 858.160156 477.40625 852.707031 483.3125 C 849.074219 487.25 851.359375 493.734375 855.046875 494.011719 C 855.070312 500.183594 851.945312 501.941406 847.277344 506.507812 C 842.75 510.933594 827.03125 505.355469 821.21875 502.898438 C 812.023438 498.996094 803.632812 493.6875 792.601562 486.988281 L 792.609375 487.003906 C 779.609375 479.308594 773.820312 477.019531 767.457031 474.832031 L 767.457031 474.8125 C 743.628906 467.9375 733.242188 474.957031 726.15625 478.957031 L 726.304688 479.027344 L 726.085938 479.054688 C 720.675781 482.445312 718.25 484.542969 713.4375 485.691406 C 713.4375 485.691406 711.46875 484.871094 711.46875 484.871094 C 710.035156 484.277344 709.382812 474.652344 711.320312 470.417969 C 714.882812 462.628906 726.738281 461.421875 728.960938 447.628906 C 730.785156 436.6875 724.648438 428.847656 716.667969 421.4375 C 716.667969 421.4375 716.78125 421.382812 716.78125 421.382812 C 716.660156 421.441406 714 418.761719 713.742188 418.515625 C 712.382812 417.191406 711.433594 415.511719 710.371094 413.960938 C 706.425781 408.191406 702.351562 409.621094 703.007812 409.5625 C 695.878906 410.203125 694.78125 416.808594 692.113281 419.1875 L 689.359375 421.765625 L 689.460938 421.804688 C 685.875 425.152344 679.894531 430.328125 677.878906 439.136719 C 675.519531 449.148438 679.625 456.386719 687.480469 462.667969 C 692.894531 466.996094 697.664062 469.351562 696.101562 481.480469 C 695.433594 486.667969 693.976562 486.273438 690.929688 485.105469 C 675.8125 479.324219 666.214844 456.253906 610.730469 488.871094 L 610.777344 488.910156 C 608.71875 490.160156 608.617188 490.152344 606.199219 491.742188 L 606.148438 491.953125 C 596.746094 497.0625 587.347656 503.316406 574.796875 506.523438 C 571.144531 507.457031 567.171875 508.964844 563.371094 508.121094 C 556.667969 506.632812 550.988281 498.835938 551.5 494.046875 C 551.492188 494.121094 553.640625 492.996094 553.839844 492.804688 C 558.296875 488.507812 554.425781 478.9375 545.304688 480.96875 C 525.652344 485.34375 536.96875 527.871094 567.875 530.492188 C 567.371094 534.816406 526.558594 632.375 496.480469 688.40625 C 495.535156 690.882812 494.222656 691.777344 495.019531 694.175781 C 496.105469 697.4375 501.132812 700.382812 504.335938 701.5625 C 504.820312 701.578125 504.808594 701.574219 504.808594 701.574219 C 509.757812 720.832031 524.339844 738.332031 537.226562 746.914062 C 555.105469 758.824219 581.621094 758.816406 593.140625 756.796875 C 614.648438 753.140625 644.4375 734.484375 652.78125 709.53125 C 653.90625 706.160156 653.9375 706.128906 655.332031 702.398438 C 660.875 702.433594 663.425781 696.105469 664.207031 695.007812 C 664.492188 691.277344 663.113281 688.796875 659.355469 687.636719 C 648.523438 663.433594 646.1875 669.050781 622.65625 609.695312 C 595.832031 541.78125 603.617188 549.082031 592.105469 527.242188 C 593.035156 526.71875 593.964844 526.191406 594.894531 525.667969 C 594.78125 525.75 594.746094 526.015625 594.746094 526.144531 C 599.082031 523.785156 606.492188 515.460938 618.210938 508.894531 L 618.1875 508.679688 C 624.390625 506.277344 625.21875 506 626.863281 505.136719 C 634.960938 503.964844 658.347656 498.316406 678.273438 530.4375 L 678.25 530.714844 C 679.9375 534.09375 685.148438 547.261719 685.964844 550.394531 C 677.421875 551.359375 677.089844 559.484375 676.585938 567.679688 L 676.8125 567.5625 C 676.832031 569.964844 677.183594 572.164062 677.703125 574.445312 L 677.441406 574.5 C 678.054688 575.71875 677.878906 575.214844 678.21875 576.71875 L 678.511719 576.625 C 680.027344 579.632812 682.191406 582.609375 684.46875 585.261719 L 685.160156 587.609375 C 686.589844 592.476562 680.625 595.566406 679.855469 604.371094 C 679.0625 613.484375 683.304688 617.175781 682.945312 621.996094 C 682.460938 628.449219 679.761719 630.296875 682.375 637.828125 L 682.320312 637.933594 C 683.050781 639.390625 683.570312 640.96875 684.167969 642.484375 C 684.886719 644.3125 686.113281 645.3125 686.125 647.503906 C 686.132812 649.214844 685.40625 650.851562 684.917969 652.46875 C 677.761719 676.261719 695.410156 684.375 663.148438 744.148438 L 663.105469 744.09375 C 656.753906 756.152344 653.054688 760.679688 658.171875 777.25 C 662.789062 792.210938 657.542969 792.089844 642.757812 804.917969 L 642.910156 805.019531 C 641.972656 805.9375 618.332031 832.28125 617.597656 833.089844 C 616.664062 834.121094 621.734375 838.332031 622.457031 838.796875 C 626.929688 841.65625 629.582031 841.496094 643.25 846.402344 C 691.226562 863.621094 742.964844 858.628906 782.566406 839.984375 C 786.28125 838.152344 788.949219 835.835938 788.722656 831.785156 C 788.71875 831.757812 785.515625 829.171875 785.191406 828.828125 C 785.0625 828.695312 774.355469 816.636719 774.355469 816.476562 C 763.339844 803.734375 764.730469 805.890625 759.820312 801.40625 L 759.746094 801.476562 C 742.617188 787.882812 745.367188 789.601562 750.554688 768.996094 L 750.300781 769.117188 C 751.691406 759.992188 749.253906 755.769531 745.8125 748.21875 L 745.679688 748.355469 C 743.59375 744.429688 742.867188 743.515625 740.625 738.6875 L 740.570312 738.683594 C 729.570312 715.4375 726.804688 707.382812 723.78125 694.171875 C 723.78125 694.171875 723.429688 690.992188 723.285156 689.335938 L 723.238281 689.339844 C 722.914062 683.773438 723.007812 681.167969 723.300781 676.347656 L 723.226562 676.320312 C 723.585938 667.394531 723.757812 662.632812 722.371094 655.382812 L 722.390625 655.375 C 722.296875 655.03125 722.367188 655.359375 722.003906 653.46875 L 721.890625 653.523438 C 721.101562 650.621094 720.230469 648.148438 720.761719 645.730469 C 721.132812 644.035156 722.109375 640.789062 723.609375 639.730469 C 725.566406 635.175781 725.695312 630.832031 724.421875 626.097656 C 721.613281 615.660156 732.003906 610.15625 723.175781 594.476562 C 720.605469 589.90625 721.019531 589.890625 721.6875 585.265625 C 722.296875 584.792969 722.699219 584.511719 723.140625 583.777344 L 723.144531 583.871094 L 727.011719 578.441406 C 730.3125 573.808594 733.117188 552.546875 720.78125 550.378906 L 720.484375 550.6875 L 720.40625 550.621094 C 721.570312 547 726.480469 534.59375 726.96875 533.421875 L 726.90625 533.3125 C 737 513.902344 751.945312 505.023438 765.472656 504.09375 C 768.878906 503.863281 769.128906 503.757812 776.144531 504.570312 L 776.128906 504.378906 L 776.257812 504.632812 C 783.863281 506.472656 786.25 507.761719 793.078125 511.539062 L 793.066406 511.714844 C 796.976562 514.285156 796.144531 513.703125 810.007812 524.933594 L 809.726562 524.363281 C 811.269531 525.421875 812.882812 526.367188 814.5625 527.183594 C 802.828125 547.074219 808.730469 551.023438 779.601562 620.148438 C 756.390625 675.519531 758.671875 662.171875 747.136719 687.648438 C 743.378906 688.828125 742.019531 691.269531 742.304688 694.792969 C 742.980469 695.933594 745.460938 702.371094 751.203125 702.382812 C 757.109375 718.363281 753.824219 713.40625 759.335938 721.480469 C 770.261719 737.492188 787.199219 749.460938 804.277344 754.621094 C 825.242188 760.957031 851.800781 757.148438 864.363281 749.769531 C 881.65625 739.621094 896.027344 722.734375 901.777344 701.558594 C 904.316406 701.210938 911.214844 697.210938 911.660156 693.414062 C 911.761719 692.527344 911.640625 691.191406 910.496094 689.78125 Z M 605.003906 588.375 C 616.265625 623.929688 643.367188 682.855469 646.507812 687.203125 C 639.996094 687.652344 639.75 687.851562 624.214844 687.339844 C 572.886719 685.648438 609.160156 689.785156 510.515625 686.515625 C 514.183594 674.128906 521.863281 664.34375 527.441406 652.539062 C 534.417969 637.832031 540.503906 622.617188 547.191406 607.875 C 559.316406 580.859375 569.664062 559.089844 576.191406 531.226562 C 578.445312 531.179688 580.609375 531.066406 583.457031 530.441406 C 588.050781 536.03125 602.753906 581.460938 605.003906 588.375 Z M 629.117188 494.515625 C 629.375 494.207031 629.574219 493.882812 629.714844 493.542969 C 629.722656 493.828125 629.5 494.242188 629.117188 494.515625 Z M 669.644531 510.574219 C 669.605469 510.511719 669.578125 510.4375 669.554688 510.363281 C 669.605469 510.34375 669.6875 510.332031 669.777344 510.339844 C 669.757812 510.40625 669.710938 510.496094 669.644531 510.574219 Z M 693.765625 520.058594 C 693.71875 519.980469 693.6875 519.898438 693.667969 519.820312 C 693.765625 519.796875 693.789062 519.8125 693.816406 519.832031 C 693.8125 519.90625 693.796875 519.984375 693.765625 520.058594 Z M 742.070312 505.953125 C 742.0625 505.890625 742.0625 505.832031 742.074219 505.78125 C 742.191406 505.804688 742.292969 505.859375 742.371094 505.917969 Z M 856.46875 687.695312 C 836.207031 688.808594 815.832031 686.804688 802.742188 686.921875 C 784.488281 686.796875 775.238281 688.300781 760.042969 687.175781 C 760.695312 686.550781 760.25 686.925781 761.070312 686.246094 C 762.347656 682.953125 762.015625 682.050781 765.960938 674.695312 C 771.90625 664.222656 791.367188 618.441406 799.117188 595.679688 C 820.410156 533.070312 818.25 536.472656 823.15625 530.203125 C 825.5 530.738281 827.894531 531.0625 830.3125 531.183594 C 837.550781 561.917969 847.164062 580.054688 871.984375 636.855469 C 887.207031 671.230469 891.863281 672.285156 896.03125 686.679688 C 896.03125 686.679688 881.234375 686.617188 856.46875 687.695312 Z M 856.46875 687.695312 " fill-opacity="1" fill-rule="nonzero"/></g></g></g></svg>